<?xml version="1.0" standalone="no"?>
<!DOCTYPE svg PUBLIC "-//W3C//DTD SVG 20010904//EN"
 "http://www.w3.org/TR/2001/REC-SVG-20010904/DTD/svg10.dtd">
<svg version="1.0" xmlns="http://www.w3.org/2000/svg"
 width="200.000000pt" height="200.000000pt" viewBox="0 0 200.000000 200.000000"
 preserveAspectRatio="xMidYMid meet">

<g transform="translate(0.000000,200.000000) scale(0.100000,-0.100000)"
fill="#000000" stroke="none">
<path d="M0 1000 l0 -1000 1000 0 1000 0 0 1000 0 1000 -1000 0 -1000 0 0
-1000z m440 -379 c0 -102 3 -130 14 -134 9 -4 12 -14 9 -26 -6 -25 -40 -28
-69 -7 -17 13 -19 29 -22 147 -4 140 -1 149 46 149 22 0 22 -2 22 -129z m780
4 c0 -102 3 -127 15 -131 8 -4 15 -17 15 -30 0 -19 -5 -24 -27 -24 -55 0 -63
20 -63 166 0 136 1 141 43 143 15 1 17 -11 17 -124z m230 43 c31 -76 80 -208
80 -219 0 -5 -14 -9 -31 -9 -24 0 -32 6 -40 30 -10 28 -14 30 -64 30 -50 0
-54 -2 -64 -30 -8 -24 -16 -30 -40 -30 -17 0 -31 5 -31 11 0 6 23 69 51 140
51 129 51 129 83 129 31 0 35 -4 56 -52z m178 -90 l3 -138 -36 0 -35 0 0 141
0 140 33 -3 32 -3 3 -137z m-1003 67 c37 -15 55 -46 55 -96 l0 -29 -65 0 c-36
0 -65 -4 -65 -10 0 -13 44 -23 79 -18 23 3 31 0 35 -16 3 -11 3 -23 1 -26 -9
-15 -69 -20 -107 -10 -91 25 -105 159 -20 204 34 19 45 19 87 1z m238 9 l37
-7 0 -106 c0 -125 -10 -151 -64 -168 -43 -15 -116 -7 -116 12 0 33 11 40 56
36 32 -2 49 1 55 10 14 22 11 24 -33 25 -56 2 -88 37 -88 97 0 47 22 81 60 96
30 12 44 13 93 5z m231 -24 c18 -17 21 -32 21 -103 l0 -82 -45 -5 c-47 -6
-107 3 -121 17 -4 4 -10 20 -14 34 -10 39 22 72 78 78 38 5 45 9 37 21 -6 9
-23 14 -49 13 -23 -1 -41 2 -41 7 0 4 -3 15 -6 23 -12 33 106 31 140 -3z"/>
<path d="M1377 608 c-22 -58 -22 -58 19 -58 38 0 39 2 9 73 l-12 28 -16 -43z"/>
<path d="M562 598 c-20 -20 -14 -28 23 -28 19 0 35 4 35 8 0 12 -22 32 -35 32
-6 0 -16 -5 -23 -12z"/>
<path d="M800 603 c-35 -14 -42 -76 -11 -93 35 -18 51 -2 51 51 0 49 -5 55
-40 42z"/>
<path d="M995 520 c-10 -17 16 -41 39 -38 13 2 22 12 24 26 3 19 -1 22 -27 22
-16 0 -33 -5 -36 -10z"/>
</g>
</svg>
